<?xml version="1.0" encoding="UTF-8"?>
<svg width="25px" height="23px" viewBox="0 0 528 480" version="1.1" xmlns="http://www.w3.org/2000/svg" xmlns:xlink="http://www.w3.org/1999/xlink">
    <!-- Generator: Sketch 46.2 (44496) - http://www.bohemiancoding.com/sketch -->
    <title>Untitled</title>
    <desc>Created with Sketch.</desc>
    <defs></defs>
    <g id="Page-1" stroke="none" stroke-width="1" fill="none" fill-rule="evenodd">
        <g id="running" transform="translate(8.000000, 7.000000)" stroke="#455B65" fill-rule="nonzero">
            <path d="M121,45.5 L45,45.5 C36.709,45.5 30,52.209 30,60.5 C30,68.791 36.709,75.5 45,75.5 L121,75.5 C129.291,75.5 136,68.791 136,60.5 C136,52.209 129.291,45.5 121,45.5 Z" id="Shape" stroke-width="20"></path>
            <path d="M121,165.5 L45,165.5 C36.709,165.5 30,172.209 30,180.5 C30,188.791 36.709,195.5 45,195.5 L121,195.5 C129.291,195.5 136,188.791 136,180.5 C136,172.209 129.291,165.5 121,165.5 Z" id="Shape" stroke-width="20"></path>
            <path d="M91,105.5 L15,105.5 C6.709,105.5 0,112.209 0,120.5 C0,128.791 6.709,135.5 15,135.5 L91,135.5 C99.291,135.5 106,128.791 106,120.5 C106,112.209 99.291,105.5 91,105.5 Z" id="Shape" stroke-width="20"></path>
            <path d="M482,180.5 L391,180.5 L391,120.5 C391,94.154 358.771,80.282 339.78,99.298 L219.789,219.289 C208.07,231.008 208.07,249.992 219.789,261.711 L288.578,330.5 L204.789,414.289 C193.07,426.008 193.07,444.992 204.789,456.711 C216.507,468.429 235.492,468.43 247.211,456.711 L352.211,351.711 C363.93,339.992 363.93,321.008 352.211,309.289 L283.422,240.5 L331,192.922 L331,210.5 C331,227.067 344.433,240.5 361,240.5 L482,240.5 C498.567,240.5 512,227.067 512,210.5 C512,193.933 498.567,180.5 482,180.5 Z" id="Shape" stroke-width="28"></path>
            <path d="M280.14,28.04 C268.216,20.115 252.396,21.683 242.288,31.79 L159.788,114.29 C148.069,126.009 148.069,144.993 159.788,156.712 C171.507,168.431 190.492,168.43 202.211,156.711 L267.323,91.599 L289.257,107.399 L318.563,78.093 C323.465,73.191 329.247,69.386 335.57,66.415 L280.14,28.04 Z" id="Shape" stroke-width="28"></path>
            <path d="M198.578,282.922 C190.977,275.321 185.903,265.966 183.228,255.85 L24.789,414.289 C13.07,426.008 13.07,444.992 24.789,456.711 C36.507,468.429 55.492,468.43 67.211,456.711 L219.789,304.133 L198.578,282.922 Z" id="Shape" stroke-width="28"></path>
            <circle id="Oval" stroke-width="28" cx="406" cy="45.5" r="45"></circle>
        </g>
    </g>
</svg>